<svg width="70" height="70" viewBox="0 0 70 70" fill="none" xmlns="http://www.w3.org/2000/svg">
<path d="M34.896 66.3076C17.578 66.3076 3.4844 52.266 3.4844 34.896C3.4844 17.578 17.526 3.4844 34.896 3.4844C52.266 3.4844 66.3076 17.526 66.3076 34.896C66.3076 52.266 52.214 66.3076 34.896 66.3076ZM35 0C15.6538 0 0 15.6538 0 35C0 54.3462 15.6538 70 35 70C54.3462 70 70 54.3462 70 35C70 15.7058 54.3462 0 35 0ZM53.3581 43.737V43.477L51.4859 42.4369V28.4993C55.1263 29.3314 57.8306 32.5557 57.8306 36.4562C57.8306 39.6285 56.0104 42.3848 53.3581 43.737ZM47.8455 42.4369L45.8692 43.529V43.685C43.2689 42.3328 41.5007 39.6285 41.5007 36.4562C41.5007 32.6077 44.2051 29.3314 47.8455 28.5513V42.4369ZM35 59.1308C30.4755 59.1308 26.8351 55.4903 26.8351 50.9658C26.8351 47.1174 29.5394 43.841 33.1798 43.0089V43.633L30.9435 44.9331V48.1575L33.1798 46.8574V48.1575L30.9435 49.4577V52.786L33.1798 51.4339V52.63L30.9435 53.9302V57.1025L35 54.8143L39.0565 57.0505V53.8782L36.8202 52.63V51.3819L39.0565 52.682V49.3536L36.8202 48.1055V46.7533L39.0565 48.0015V44.9331L36.8202 43.633V43.0089C40.4606 43.841 43.1649 47.0654 43.1649 50.9658C43.1129 55.4383 39.4725 59.1308 35 59.1308ZM23.9747 43.789V43.529L22.1025 42.4889V28.6033C25.7429 29.4354 28.4473 32.6597 28.4473 36.5602C28.4473 39.6805 26.627 42.4368 23.9747 43.789ZM18.5141 42.4369L16.5379 43.529V43.685C13.9376 42.3328 12.1694 39.6285 12.1694 36.4562C12.1694 32.5557 14.8737 29.3314 18.5141 28.4993V42.4369ZM51.4339 26.159V21.0624V19.0862L53.8782 19.7623L49.6137 12.3254L45.4012 19.7623L47.8455 19.0862V21.0624V26.159C42.9569 26.9911 39.1605 31.3076 39.1605 36.4562C39.1605 38.6924 39.8886 40.7727 41.0847 42.4889C39.8366 41.5527 38.3284 40.9287 36.7162 40.6166V15.2897L39.1605 16.0178L34.896 8.63299L30.6835 16.0178L33.1278 15.2897V40.6686C31.5676 40.9287 30.1114 41.5527 28.8633 42.4889C30.0594 40.7727 30.7355 38.7444 30.7355 36.5082C30.7355 31.3596 26.9911 27.0431 22.0505 26.211V21.0624V19.0862L24.4948 19.7623L20.2303 12.3254L16.0178 19.7623L18.4621 19.0862V21.0624V26.211C13.5736 27.0431 9.82912 31.3596 9.82912 36.5082C9.82912 41.6568 13.5736 45.9212 18.4621 46.8053L16.4859 47.8975V51.2779L18.4101 50.1857V51.3299L16.4339 52.474V55.6464L20.1783 53.5141L23.8707 55.5944V52.37L21.9465 51.3299V50.1337L23.8707 51.2259V47.9495V47.7935L21.9985 46.7533C23.6107 46.4933 25.0669 45.8172 26.315 44.9331C25.1189 46.5973 24.4428 48.6776 24.4428 50.9138C24.4428 56.6865 29.1233 61.367 34.896 61.367C40.6687 61.367 45.3492 56.6865 45.3492 50.9138C45.3492 48.6776 44.6211 46.5973 43.425 44.8811C44.6731 45.8172 46.1293 46.4413 47.7415 46.7013V46.7533L45.7652 47.8455V51.2259L47.7415 50.1337V51.2779L45.7652 52.422V55.5944L49.5097 53.4621L53.2021 55.5423V52.318L51.2779 51.2779V50.1337L53.2021 51.2259V47.9495V47.7935L51.3299 46.7533V46.7013C56.2704 45.8692 60.0149 41.5527 60.0149 36.4042C60.1709 31.3076 56.3744 26.9911 51.4339 26.159Z" fill="#152F44"/>
</svg>
